<?xml version="1.0" encoding="utf-8" standalone="no"?>
<!DOCTYPE svg PUBLIC "-//W3C//DTD SVG 1.1//EN"
  "http://www.w3.org/Graphics/SVG/1.1/DTD/svg11.dtd">
<svg xmlns:xlink="http://www.w3.org/1999/xlink" width="881.28pt" height="118.08pt" viewBox="0 0 881.28 118.08" xmlns="http://www.w3.org/2000/svg" version="1.1">
 <metadata>
  <rdf:RDF xmlns:dc="http://purl.org/dc/elements/1.1/" xmlns:cc="http://creativecommons.org/ns#" xmlns:rdf="http://www.w3.org/1999/02/22-rdf-syntax-ns#">
   <cc:Work>
    <dc:type rdf:resource="http://purl.org/dc/dcmitype/StillImage"/>
    <dc:date>2025-12-29T23:58:46.518712</dc:date>
    <dc:format>image/svg+xml</dc:format>
    <dc:creator>
     <cc:Agent>
      <dc:title>Matplotlib v3.7.5, https://matplotlib.org/</dc:title>
     </cc:Agent>
    </dc:creator>
   </cc:Work>
  </rdf:RDF>
 </metadata>
 <defs>
  <style type="text/css">*{stroke-linejoin: round; stroke-linecap: butt}</style>
 </defs>
 <g id="figure_1">
  <g id="patch_1">
   <path d="M 0 118.08 
L 881.28 118.08 
L 881.28 0 
L 0 0 
L 0 118.08 
z
" style="fill: none; opacity: 0"/>
  </g>
  <g id="axes_1">
   <g id="text_1">
    <!-- Prédiction de la covariance :  $P_{k|k-1} = F_k\,P_{k-1|k-1}\,F_k^T + Q$ -->
    <g transform="translate(17.28 65.31) scale(0.22 -0.22)">
     <defs>
      <path id="DejaVuSans-50" d="M 1259 4147 
L 1259 2394 
L 2053 2394 
Q 2494 2394 2734 2622 
Q 2975 2850 2975 3272 
Q 2975 3691 2734 3919 
Q 2494 4147 2053 4147 
L 1259 4147 
z
M 628 4666 
L 2053 4666 
Q 2838 4666 3239 4311 
Q 3641 3956 3641 3272 
Q 3641 2581 3239 2228 
Q 2838 1875 2053 1875 
L 1259 1875 
L 1259 0 
L 628 0 
L 628 4666 
z
" transform="scale(0.015625)"/>
      <path id="DejaVuSans-72" d="M 2631 2963 
Q 2534 3019 2420 3045 
Q 2306 3072 2169 3072 
Q 1681 3072 1420 2755 
Q 1159 2438 1159 1844 
L 1159 0 
L 581 0 
L 581 3500 
L 1159 3500 
L 1159 2956 
Q 1341 3275 1631 3429 
Q 1922 3584 2338 3584 
Q 2397 3584 2469 3576 
Q 2541 3569 2628 3553 
L 2631 2963 
z
" transform="scale(0.015625)"/>
      <path id="DejaVuSans-e9" d="M 3597 1894 
L 3597 1613 
L 953 1613 
Q 991 1019 1311 708 
Q 1631 397 2203 397 
Q 2534 397 2845 478 
Q 3156 559 3463 722 
L 3463 178 
Q 3153 47 2828 -22 
Q 2503 -91 2169 -91 
Q 1331 -91 842 396 
Q 353 884 353 1716 
Q 353 2575 817 3079 
Q 1281 3584 2069 3584 
Q 2775 3584 3186 3129 
Q 3597 2675 3597 1894 
z
M 3022 2063 
Q 3016 2534 2758 2815 
Q 2500 3097 2075 3097 
Q 1594 3097 1305 2825 
Q 1016 2553 972 2059 
L 3022 2063 
z
M 2466 5119 
L 3088 5119 
L 2070 3944 
L 1591 3944 
L 2466 5119 
z
" transform="scale(0.015625)"/>
      <path id="DejaVuSans-64" d="M 2906 2969 
L 2906 4863 
L 3481 4863 
L 3481 0 
L 2906 0 
L 2906 525 
Q 2725 213 2448 61 
Q 2172 -91 1784 -91 
Q 1150 -91 751 415 
Q 353 922 353 1747 
Q 353 2572 751 3078 
Q 1150 3584 1784 3584 
Q 2172 3584 2448 3432 
Q 2725 3281 2906 2969 
z
M 947 1747 
Q 947 1113 1208 752 
Q 1469 391 1925 391 
Q 2381 391 2643 752 
Q 2906 1113 2906 1747 
Q 2906 2381 2643 2742 
Q 2381 3103 1925 3103 
Q 1469 3103 1208 2742 
Q 947 2381 947 1747 
z
" transform="scale(0.015625)"/>
      <path id="DejaVuSans-69" d="M 603 3500 
L 1178 3500 
L 1178 0 
L 603 0 
L 603 3500 
z
M 603 4863 
L 1178 4863 
L 1178 4134 
L 603 4134 
L 603 4863 
z
" transform="scale(0.015625)"/>
      <path id="DejaVuSans-63" d="M 3122 3366 
L 3122 2828 
Q 2878 2963 2633 3030 
Q 2388 3097 2138 3097 
Q 1578 3097 1268 2742 
Q 959 2388 959 1747 
Q 959 1106 1268 751 
Q 1578 397 2138 397 
Q 2388 397 2633 464 
Q 2878 531 3122 666 
L 3122 134 
Q 2881 22 2623 -34 
Q 2366 -91 2075 -91 
Q 1284 -91 818 406 
Q 353 903 353 1747 
Q 353 2603 823 3093 
Q 1294 3584 2113 3584 
Q 2378 3584 2631 3529 
Q 2884 3475 3122 3366 
z
" transform="scale(0.015625)"/>
      <path id="DejaVuSans-74" d="M 1172 4494 
L 1172 3500 
L 2356 3500 
L 2356 3053 
L 1172 3053 
L 1172 1153 
Q 1172 725 1289 603 
Q 1406 481 1766 481 
L 2356 481 
L 2356 0 
L 1766 0 
Q 1100 0 847 248 
Q 594 497 594 1153 
L 594 3053 
L 172 3053 
L 172 3500 
L 594 3500 
L 594 4494 
L 1172 4494 
z
" transform="scale(0.015625)"/>
      <path id="DejaVuSans-6f" d="M 1959 3097 
Q 1497 3097 1228 2736 
Q 959 2375 959 1747 
Q 959 1119 1226 758 
Q 1494 397 1959 397 
Q 2419 397 2687 759 
Q 2956 1122 2956 1747 
Q 2956 2369 2687 2733 
Q 2419 3097 1959 3097 
z
M 1959 3584 
Q 2709 3584 3137 3096 
Q 3566 2609 3566 1747 
Q 3566 888 3137 398 
Q 2709 -91 1959 -91 
Q 1206 -91 779 398 
Q 353 888 353 1747 
Q 353 2609 779 3096 
Q 1206 3584 1959 3584 
z
" transform="scale(0.015625)"/>
      <path id="DejaVuSans-6e" d="M 3513 2113 
L 3513 0 
L 2938 0 
L 2938 2094 
Q 2938 2591 2744 2837 
Q 2550 3084 2163 3084 
Q 1697 3084 1428 2787 
Q 1159 2491 1159 1978 
L 1159 0 
L 581 0 
L 581 3500 
L 1159 3500 
L 1159 2956 
Q 1366 3272 1645 3428 
Q 1925 3584 2291 3584 
Q 2894 3584 3203 3211 
Q 3513 2838 3513 2113 
z
" transform="scale(0.015625)"/>
      <path id="DejaVuSans-20" transform="scale(0.015625)"/>
      <path id="DejaVuSans-65" d="M 3597 1894 
L 3597 1613 
L 953 1613 
Q 991 1019 1311 708 
Q 1631 397 2203 397 
Q 2534 397 2845 478 
Q 3156 559 3463 722 
L 3463 178 
Q 3153 47 2828 -22 
Q 2503 -91 2169 -91 
Q 1331 -91 842 396 
Q 353 884 353 1716 
Q 353 2575 817 3079 
Q 1281 3584 2069 3584 
Q 2775 3584 3186 3129 
Q 3597 2675 3597 1894 
z
M 3022 2063 
Q 3016 2534 2758 2815 
Q 2500 3097 2075 3097 
Q 1594 3097 1305 2825 
Q 1016 2553 972 2059 
L 3022 2063 
z
" transform="scale(0.015625)"/>
      <path id="DejaVuSans-6c" d="M 603 4863 
L 1178 4863 
L 1178 0 
L 603 0 
L 603 4863 
z
" transform="scale(0.015625)"/>
      <path id="DejaVuSans-61" d="M 2194 1759 
Q 1497 1759 1228 1600 
Q 959 1441 959 1056 
Q 959 750 1161 570 
Q 1363 391 1709 391 
Q 2188 391 2477 730 
Q 2766 1069 2766 1631 
L 2766 1759 
L 2194 1759 
z
M 3341 1997 
L 3341 0 
L 2766 0 
L 2766 531 
Q 2569 213 2275 61 
Q 1981 -91 1556 -91 
Q 1019 -91 701 211 
Q 384 513 384 1019 
Q 384 1609 779 1909 
Q 1175 2209 1959 2209 
L 2766 2209 
L 2766 2266 
Q 2766 2663 2505 2880 
Q 2244 3097 1772 3097 
Q 1472 3097 1187 3025 
Q 903 2953 641 2809 
L 641 3341 
Q 956 3463 1253 3523 
Q 1550 3584 1831 3584 
Q 2591 3584 2966 3190 
Q 3341 2797 3341 1997 
z
" transform="scale(0.015625)"/>
      <path id="DejaVuSans-76" d="M 191 3500 
L 800 3500 
L 1894 563 
L 2988 3500 
L 3597 3500 
L 2284 0 
L 1503 0 
L 191 3500 
z
" transform="scale(0.015625)"/>
      <path id="DejaVuSans-3a" d="M 750 794 
L 1409 794 
L 1409 0 
L 750 0 
L 750 794 
z
M 750 3309 
L 1409 3309 
L 1409 2516 
L 750 2516 
L 750 3309 
z
" transform="scale(0.015625)"/>
      <path id="DejaVuSans-Oblique-50" d="M 1081 4666 
L 2541 4666 
Q 3178 4666 3512 4369 
Q 3847 4072 3847 3500 
Q 3847 2731 3353 2303 
Q 2859 1875 1966 1875 
L 1172 1875 
L 806 0 
L 172 0 
L 1081 4666 
z
M 1613 4147 
L 1275 2394 
L 2069 2394 
Q 2606 2394 2893 2669 
Q 3181 2944 3181 3456 
Q 3181 3784 2986 3965 
Q 2791 4147 2438 4147 
L 1613 4147 
z
" transform="scale(0.015625)"/>
      <path id="DejaVuSans-Oblique-6b" d="M 1172 4863 
L 1747 4863 
L 1197 2028 
L 3169 3500 
L 3916 3500 
L 1716 1825 
L 3322 0 
L 2625 0 
L 1131 1709 
L 800 0 
L 225 0 
L 1172 4863 
z
" transform="scale(0.015625)"/>
      <path id="DejaVuSans-7c" d="M 1344 4891 
L 1344 -1509 
L 813 -1509 
L 813 4891 
L 1344 4891 
z
" transform="scale(0.015625)"/>
      <path id="DejaVuSans-2212" d="M 678 2272 
L 4684 2272 
L 4684 1741 
L 678 1741 
L 678 2272 
z
" transform="scale(0.015625)"/>
      <path id="DejaVuSans-31" d="M 794 531 
L 1825 531 
L 1825 4091 
L 703 3866 
L 703 4441 
L 1819 4666 
L 2450 4666 
L 2450 531 
L 3481 531 
L 3481 0 
L 794 0 
L 794 531 
z
" transform="scale(0.015625)"/>
      <path id="DejaVuSans-3d" d="M 678 2906 
L 4684 2906 
L 4684 2381 
L 678 2381 
L 678 2906 
z
M 678 1631 
L 4684 1631 
L 4684 1100 
L 678 1100 
L 678 1631 
z
" transform="scale(0.015625)"/>
      <path id="DejaVuSans-Oblique-46" d="M 1081 4666 
L 3756 4666 
L 3653 4134 
L 1606 4134 
L 1338 2759 
L 3188 2759 
L 3084 2228 
L 1234 2228 
L 800 0 
L 172 0 
L 1081 4666 
z
" transform="scale(0.015625)"/>
      <path id="DejaVuSans-Oblique-54" d="M 378 4666 
L 4325 4666 
L 4225 4134 
L 2559 4134 
L 1759 0 
L 1125 0 
L 1925 4134 
L 275 4134 
L 378 4666 
z
" transform="scale(0.015625)"/>
      <path id="DejaVuSans-2b" d="M 2944 4013 
L 2944 2272 
L 4684 2272 
L 4684 1741 
L 2944 1741 
L 2944 0 
L 2419 0 
L 2419 1741 
L 678 1741 
L 678 2272 
L 2419 2272 
L 2419 4013 
L 2944 4013 
z
" transform="scale(0.015625)"/>
      <path id="DejaVuSans-Oblique-51" d="M 2309 -84 
Q 2275 -88 2237 -89 
Q 2200 -91 2125 -91 
Q 1250 -91 756 411 
Q 263 913 263 1797 
Q 263 2319 452 2844 
Q 641 3369 978 3788 
Q 1369 4269 1858 4509 
Q 2347 4750 2938 4750 
Q 3794 4750 4287 4245 
Q 4781 3741 4781 2869 
Q 4781 1928 4265 1147 
Q 3750 366 2919 44 
L 3553 -825 
L 2847 -825 
L 2309 -84 
z
M 2919 4238 
Q 2400 4238 2003 3986 
Q 1606 3734 1313 3219 
Q 1125 2891 1026 2522 
Q 928 2153 928 1778 
Q 928 1128 1239 775 
Q 1550 422 2119 422 
Q 2631 422 3032 676 
Q 3434 931 3719 1434 
Q 3909 1772 4009 2142 
Q 4109 2513 4109 2881 
Q 4109 3528 3796 3883 
Q 3484 4238 2919 4238 
z
" transform="scale(0.015625)"/>
     </defs>
     <use xlink:href="#DejaVuSans-50" transform="translate(0 0.620313)"/>
     <use xlink:href="#DejaVuSans-72" transform="translate(60.302734 0.620313)"/>
     <use xlink:href="#DejaVuSans-e9" transform="translate(101.416016 0.620313)"/>
     <use xlink:href="#DejaVuSans-64" transform="translate(162.939453 0.620313)"/>
     <use xlink:href="#DejaVuSans-69" transform="translate(226.416016 0.620313)"/>
     <use xlink:href="#DejaVuSans-63" transform="translate(254.199219 0.620313)"/>
     <use xlink:href="#DejaVuSans-74" transform="translate(309.179688 0.620313)"/>
     <use xlink:href="#DejaVuSans-69" transform="translate(348.388672 0.620313)"/>
     <use xlink:href="#DejaVuSans-6f" transform="translate(376.171875 0.620313)"/>
     <use xlink:href="#DejaVuSans-6e" transform="translate(437.353516 0.620313)"/>
     <use xlink:href="#DejaVuSans-20" transform="translate(500.732422 0.620313)"/>
     <use xlink:href="#DejaVuSans-64" transform="translate(532.519531 0.620313)"/>
     <use xlink:href="#DejaVuSans-65" transform="translate(595.996094 0.620313)"/>
     <use xlink:href="#DejaVuSans-20" transform="translate(657.519531 0.620313)"/>
     <use xlink:href="#DejaVuSans-6c" transform="translate(689.306641 0.620313)"/>
     <use xlink:href="#DejaVuSans-61" transform="translate(717.089844 0.620313)"/>
     <use xlink:href="#DejaVuSans-20" transform="translate(778.369141 0.620313)"/>
     <use xlink:href="#DejaVuSans-63" transform="translate(810.15625 0.620313)"/>
     <use xlink:href="#DejaVuSans-6f" transform="translate(865.136719 0.620313)"/>
     <use xlink:href="#DejaVuSans-76" transform="translate(926.318359 0.620313)"/>
     <use xlink:href="#DejaVuSans-61" transform="translate(985.498047 0.620313)"/>
     <use xlink:href="#DejaVuSans-72" transform="translate(1046.777344 0.620313)"/>
     <use xlink:href="#DejaVuSans-69" transform="translate(1087.890625 0.620313)"/>
     <use xlink:href="#DejaVuSans-61" transform="translate(1115.673828 0.620313)"/>
     <use xlink:href="#DejaVuSans-6e" transform="translate(1176.953125 0.620313)"/>
     <use xlink:href="#DejaVuSans-63" transform="translate(1240.332031 0.620313)"/>
     <use xlink:href="#DejaVuSans-65" transform="translate(1295.3125 0.620313)"/>
     <use xlink:href="#DejaVuSans-20" transform="translate(1356.835938 0.620313)"/>
     <use xlink:href="#DejaVuSans-3a" transform="translate(1388.623047 0.620313)"/>
     <use xlink:href="#DejaVuSans-20" transform="translate(1422.314453 0.620313)"/>
     <use xlink:href="#DejaVuSans-20" transform="translate(1454.101562 0.620313)"/>
     <use xlink:href="#DejaVuSans-Oblique-50" transform="translate(1485.888672 0.620313)"/>
     <use xlink:href="#DejaVuSans-Oblique-6b" transform="translate(1546.191406 -15.785937) scale(0.7)"/>
     <use xlink:href="#DejaVuSans-7c" transform="translate(1586.728516 -15.785937) scale(0.7)"/>
     <use xlink:href="#DejaVuSans-Oblique-6b" transform="translate(1610.3125 -15.785937) scale(0.7)"/>
     <use xlink:href="#DejaVuSans-2212" transform="translate(1664.487305 -15.785937) scale(0.7)"/>
     <use xlink:href="#DejaVuSans-31" transform="translate(1736.777344 -15.785937) scale(0.7)"/>
     <use xlink:href="#DejaVuSans-3d" transform="translate(1803.530273 0.620313)"/>
     <use xlink:href="#DejaVuSans-Oblique-46" transform="translate(1906.801758 0.620313)"/>
     <use xlink:href="#DejaVuSans-Oblique-6b" transform="translate(1964.321289 -15.785937) scale(0.7)"/>
     <use xlink:href="#DejaVuSans-Oblique-50" transform="translate(2023.82845 0.620313)"/>
     <use xlink:href="#DejaVuSans-Oblique-6b" transform="translate(2084.131184 -15.785937) scale(0.7)"/>
     <use xlink:href="#DejaVuSans-2212" transform="translate(2138.305989 -15.785937) scale(0.7)"/>
     <use xlink:href="#DejaVuSans-31" transform="translate(2210.596028 -15.785937) scale(0.7)"/>
     <use xlink:href="#DejaVuSans-7c" transform="translate(2255.132161 -15.785937) scale(0.7)"/>
     <use xlink:href="#DejaVuSans-Oblique-6b" transform="translate(2278.716145 -15.785937) scale(0.7)"/>
     <use xlink:href="#DejaVuSans-2212" transform="translate(2332.89095 -15.785937) scale(0.7)"/>
     <use xlink:href="#DejaVuSans-31" transform="translate(2405.180989 -15.785937) scale(0.7)"/>
     <use xlink:href="#DejaVuSans-Oblique-46" transform="translate(2468.687173 0.620313)"/>
     <use xlink:href="#DejaVuSans-Oblique-54" transform="translate(2533.223475 38.965625) scale(0.7)"/>
     <use xlink:href="#DejaVuSans-Oblique-6b" transform="translate(2526.206704 -26.723437) scale(0.7)"/>
     <use xlink:href="#DejaVuSans-2b" transform="translate(2598.199061 0.620313)"/>
     <use xlink:href="#DejaVuSans-Oblique-51" transform="translate(2701.470545 0.620313)"/>
    </g>
   </g>
  </g>
 </g>
</svg>
